<svg width="1366" height="671" viewBox="0 0 1366 671" fill="none" xmlns="http://www.w3.org/2000/svg">
<path opacity="0.1" d="M133.859 537.693C114.847 537.134 95.7666 535.096 77.3039 530.376C54.6198 524.577 17.0138 516.09 2.99479 495.075C-24.1799 454.34 141.974 394.726 162.778 388.258C183.102 381.939 225.131 369.363 235.989 396.489C251.896 436.231 253.214 484.281 255.207 526.352C257.145 567.277 258.437 615.297 243.859 654.57C237.803 670.882 220.72 676.804 210.182 659.691C193.018 631.819 200.392 587.499 210.914 559.275C241.037 478.473 294.22 407.927 364.657 358.445C408.773 327.453 479 280.359 535.055 310.523C571.575 330.175 587.039 385.901 598.017 422.279C608.225 456.106 629.197 560.916 679.281 563.482C710.339 565.074 734.513 517.374 748.831 496.722C787.395 441.1 826.605 381.644 850.595 318.022C865.628 278.153 874.331 234.109 876.951 191.634C879.295 153.627 880.983 104.799 861.576 70.1847C842.573 36.29 800.76 22.2364 783.607 62.8684C766.258 103.964 820.198 118.088 849.863 127.617C893.162 141.525 936.137 155.363 973.589 182.123C1013.35 210.535 1044.82 252.599 1068.03 295.159C1083.27 323.097 1093.73 351.793 1099.88 382.954C1103.18 399.686 1109.08 419.634 1104.27 436.728C1097.63 460.31 1070.83 463.67 1050.46 469.286C1040.19 472.117 1057.84 450.836 1058.51 449.898C1096.48 397.326 1116.57 333.042 1142.71 274.308C1178.3 194.321 1220.82 116.037 1282.91 53.3573C1309.2 26.8135 1337.89 2.57703 1366 -22" stroke="#662B94" stroke-opacity="0.41" stroke-width="2" stroke-linecap="round"/>
<path opacity="0.1" d="M153.859 527.693C134.847 527.134 115.767 525.096 97.3039 520.376C74.6198 514.577 37.0138 506.09 22.9948 485.075C-4.17987 444.34 161.974 384.726 182.778 378.258C203.102 371.939 245.131 359.363 255.989 386.489C271.896 426.231 273.214 474.281 275.207 516.352C277.145 557.277 278.437 605.297 263.859 644.57C257.803 660.882 240.72 666.804 230.182 649.691C213.018 621.819 220.392 577.499 230.914 549.275C261.037 468.473 314.22 397.927 384.657 348.445C428.773 317.453 499 270.359 555.055 300.523C591.575 320.175 607.039 375.901 618.017 412.279C628.225 446.106 649.197 550.916 699.281 553.482C730.339 555.074 754.513 507.374 768.831 486.722C807.395 431.1 846.605 371.644 870.595 308.022C885.628 268.153 894.331 224.109 896.951 181.634C899.295 143.627 900.983 94.7989 881.576 60.1847C862.573 26.29 820.76 12.2364 803.607 52.8684C786.258 93.9641 840.198 108.088 869.863 117.617C913.162 131.525 956.137 145.363 993.589 172.123C1033.35 200.535 1064.82 242.599 1088.03 285.159C1103.27 313.097 1113.73 341.793 1119.88 372.954C1123.18 389.686 1129.08 409.634 1124.27 426.728C1117.63 450.31 1090.83 453.67 1070.46 459.286C1060.19 462.117 1077.84 440.836 1078.51 439.898C1116.48 387.326 1136.57 323.042 1162.71 264.308C1198.3 184.321 1240.82 106.037 1302.91 43.3573C1329.2 16.8135 1357.89 -7.42297 1386 -32" stroke="#662B94" stroke-opacity="0.41" stroke-width="2" stroke-linecap="round"/>
<path opacity="0.1" d="M143.859 537.693C124.847 537.134 105.767 535.096 87.3039 530.376C64.6198 524.577 27.0138 516.09 12.9948 495.075C-14.1799 454.34 151.974 394.726 172.778 388.258C193.102 381.939 235.131 369.363 245.989 396.489C261.896 436.231 263.214 484.281 265.207 526.352C267.145 567.277 268.437 615.297 253.859 654.57C247.803 670.882 230.72 676.804 220.182 659.691C203.018 631.819 210.392 587.499 220.914 559.275C251.037 478.473 304.22 407.927 374.657 358.445C418.773 327.453 489 280.359 545.055 310.523C581.575 330.175 597.039 385.901 608.017 422.279C618.225 456.106 639.197 560.916 689.281 563.482C720.339 565.074 744.513 517.374 758.831 496.722C797.395 441.1 836.605 381.644 860.595 318.022C875.628 278.153 884.331 234.109 886.951 191.634C889.295 153.627 890.983 104.799 871.576 70.1847C852.573 36.29 810.76 22.2364 793.607 62.8684C776.258 103.964 830.198 118.088 859.863 127.617C903.162 141.525 946.137 155.363 983.589 182.123C1023.35 210.535 1054.82 252.599 1078.03 295.159C1093.27 323.097 1103.73 351.793 1109.88 382.954C1113.18 399.686 1119.08 419.634 1114.27 436.728C1107.63 460.31 1080.83 463.67 1060.46 469.286C1050.19 472.117 1067.84 450.836 1068.51 449.898C1106.48 397.326 1126.57 333.042 1152.71 274.308C1188.3 194.321 1230.82 116.037 1292.91 53.3573C1319.2 26.8135 1347.89 2.57703 1376 -22" stroke="#662B94" stroke-opacity="0.41" stroke-width="2" stroke-linecap="round"/>
<path opacity="0.1" d="M163.859 527.693C144.847 527.134 125.767 525.096 107.304 520.376C84.6198 514.577 47.0138 506.09 32.9948 485.075C5.82013 444.34 171.974 384.726 192.778 378.258C213.102 371.939 255.131 359.363 265.989 386.489C281.896 426.231 283.214 474.281 285.207 516.352C287.145 557.277 288.437 605.297 273.859 644.57C267.803 660.882 250.72 666.804 240.182 649.691C223.018 621.819 230.392 577.499 240.914 549.275C271.037 468.473 324.22 397.927 394.657 348.445C438.773 317.453 509 270.359 565.055 300.523C601.575 320.175 617.039 375.901 628.017 412.279C638.225 446.106 659.197 550.916 709.281 553.482C740.339 555.074 764.513 507.374 778.831 486.722C817.395 431.1 856.605 371.644 880.595 308.022C895.628 268.153 904.331 224.109 906.951 181.634C909.295 143.627 910.983 94.7989 891.576 60.1847C872.573 26.29 830.76 12.2364 813.607 52.8684C796.258 93.9641 850.198 108.088 879.863 117.617C923.162 131.525 966.137 145.363 1003.59 172.123C1043.35 200.535 1074.82 242.599 1098.03 285.159C1113.27 313.097 1123.73 341.793 1129.88 372.954C1133.18 389.686 1139.08 409.634 1134.27 426.728C1127.63 450.31 1100.83 453.67 1080.46 459.286C1070.19 462.117 1087.84 440.836 1088.51 439.898C1126.48 387.326 1146.57 323.042 1172.71 264.308C1208.3 184.321 1250.82 106.037 1312.91 43.3573C1339.2 16.8135 1367.89 -7.42297 1396 -32" stroke="#662B94" stroke-opacity="0.41" stroke-width="2" stroke-linecap="round"/>
<path opacity="0.1" d="M153.859 537.693C134.847 537.134 115.767 535.096 97.3039 530.376C74.6198 524.577 37.0138 516.09 22.9948 495.075C-4.17987 454.34 161.974 394.726 182.778 388.258C203.102 381.939 245.131 369.363 255.989 396.489C271.896 436.231 273.214 484.281 275.207 526.352C277.145 567.277 278.437 615.297 263.859 654.57C257.803 670.882 240.72 676.804 230.182 659.691C213.018 631.819 220.392 587.499 230.914 559.275C261.037 478.473 314.22 407.927 384.657 358.445C428.773 327.453 499 280.359 555.055 310.523C591.575 330.175 607.039 385.901 618.017 422.279C628.225 456.106 649.197 560.916 699.281 563.482C730.339 565.074 754.513 517.374 768.831 496.722C807.395 441.1 846.605 381.644 870.595 318.022C885.628 278.153 894.331 234.109 896.951 191.634C899.295 153.627 900.983 104.799 881.576 70.1847C862.573 36.29 820.76 22.2364 803.607 62.8684C786.258 103.964 840.198 118.088 869.863 127.617C913.162 141.525 956.137 155.363 993.589 182.123C1033.35 210.535 1064.82 252.599 1088.03 295.159C1103.27 323.097 1113.73 351.793 1119.88 382.954C1123.18 399.686 1129.08 419.634 1124.27 436.728C1117.63 460.31 1090.83 463.67 1070.46 469.286C1060.19 472.117 1077.84 450.836 1078.51 449.898C1116.48 397.326 1136.57 333.042 1162.71 274.308C1198.3 194.321 1240.82 116.037 1302.91 53.3573C1329.2 26.8135 1357.89 2.57703 1386 -22" stroke="#662B94" stroke-opacity="0.41" stroke-width="2" stroke-linecap="round"/>
<path opacity="0.1" d="M173.859 527.693C154.847 527.134 135.767 525.096 117.304 520.376C94.6198 514.577 57.0138 506.09 42.9948 485.075C15.8201 444.34 181.974 384.726 202.778 378.258C223.102 371.939 265.131 359.363 275.989 386.489C291.896 426.231 293.214 474.281 295.207 516.352C297.145 557.277 298.437 605.297 283.859 644.57C277.803 660.882 260.72 666.804 250.182 649.691C233.018 621.819 240.392 577.499 250.914 549.275C281.037 468.473 334.22 397.927 404.657 348.445C448.773 317.453 519 270.359 575.055 300.523C611.575 320.175 627.039 375.901 638.017 412.279C648.225 446.106 669.197 550.916 719.281 553.482C750.339 555.074 774.513 507.374 788.831 486.722C827.395 431.1 866.605 371.644 890.595 308.022C905.628 268.153 914.331 224.109 916.951 181.634C919.295 143.627 920.983 94.7989 901.576 60.1847C882.573 26.29 840.76 12.2364 823.607 52.8684C806.258 93.9641 860.198 108.088 889.863 117.617C933.162 131.525 976.137 145.363 1013.59 172.123C1053.35 200.535 1084.82 242.599 1108.03 285.159C1123.27 313.097 1133.73 341.793 1139.88 372.954C1143.18 389.686 1149.08 409.634 1144.27 426.728C1137.63 450.31 1110.83 453.67 1090.46 459.286C1080.19 462.117 1097.84 440.836 1098.51 439.898C1136.48 387.326 1156.57 323.042 1182.71 264.308C1218.3 184.321 1260.82 106.037 1322.91 43.3573C1349.2 16.8135 1377.89 -7.42297 1406 -32" stroke="#662B94" stroke-opacity="0.41" stroke-width="2" stroke-linecap="round"/>
<path opacity="0.1" d="M163.859 537.693C144.847 537.134 125.767 535.096 107.304 530.376C84.6198 524.577 47.0138 516.09 32.9948 495.075C5.82013 454.34 171.974 394.726 192.778 388.258C213.102 381.939 255.131 369.363 265.989 396.489C281.896 436.231 283.214 484.281 285.207 526.352C287.145 567.277 288.437 615.297 273.859 654.57C267.803 670.882 250.72 676.804 240.182 659.691C223.018 631.819 230.392 587.499 240.914 559.275C271.037 478.473 324.22 407.927 394.657 358.445C438.773 327.453 509 280.359 565.055 310.523C601.575 330.175 617.039 385.901 628.017 422.279C638.225 456.106 659.197 560.916 709.281 563.482C740.339 565.074 764.513 517.374 778.831 496.722C817.395 441.1 856.605 381.644 880.595 318.022C895.628 278.153 904.331 234.109 906.951 191.634C909.295 153.627 910.983 104.799 891.576 70.1847C872.573 36.29 830.76 22.2364 813.607 62.8684C796.258 103.964 850.198 118.088 879.863 127.617C923.162 141.525 966.137 155.363 1003.59 182.123C1043.35 210.535 1074.82 252.599 1098.03 295.159C1113.27 323.097 1123.73 351.793 1129.88 382.954C1133.18 399.686 1139.08 419.634 1134.27 436.728C1127.63 460.31 1100.83 463.67 1080.46 469.286C1070.19 472.117 1087.84 450.836 1088.51 449.898C1126.48 397.326 1146.57 333.042 1172.71 274.308C1208.3 194.321 1250.82 116.037 1312.91 53.3573C1339.2 26.8135 1367.89 2.57703 1396 -22" stroke="#662B94" stroke-opacity="0.41" stroke-width="2" stroke-linecap="round"/>
<path opacity="0.1" d="M183.859 527.693C164.847 527.134 145.767 525.096 127.304 520.376C104.62 514.577 67.0138 506.09 52.9948 485.075C25.8201 444.34 191.974 384.726 212.778 378.258C233.102 371.939 275.131 359.363 285.989 386.489C301.896 426.231 303.214 474.281 305.207 516.352C307.145 557.277 308.437 605.297 293.859 644.57C287.803 660.882 270.72 666.804 260.182 649.691C243.018 621.819 250.392 577.499 260.914 549.275C291.037 468.473 344.22 397.927 414.657 348.445C458.773 317.453 529 270.359 585.055 300.523C621.575 320.175 637.039 375.901 648.017 412.279C658.225 446.106 679.197 550.916 729.281 553.482C760.339 555.074 784.513 507.374 798.831 486.722C837.395 431.1 876.605 371.644 900.595 308.022C915.628 268.153 924.331 224.109 926.951 181.634C929.295 143.627 930.983 94.7989 911.576 60.1847C892.573 26.29 850.76 12.2364 833.607 52.8684C816.258 93.9641 870.198 108.088 899.863 117.617C943.162 131.525 986.137 145.363 1023.59 172.123C1063.35 200.535 1094.82 242.599 1118.03 285.159C1133.27 313.097 1143.73 341.793 1149.88 372.954C1153.18 389.686 1159.08 409.634 1154.27 426.728C1147.63 450.31 1120.83 453.67 1100.46 459.286C1090.19 462.117 1107.84 440.836 1108.51 439.898C1146.48 387.326 1166.57 323.042 1192.71 264.308C1228.3 184.321 1270.82 106.037 1332.91 43.3573C1359.2 16.8135 1387.89 -7.42297 1416 -32" stroke="#662B94" stroke-opacity="0.41" stroke-width="2" stroke-linecap="round"/>
</svg>
